<svg width="522" height="76" viewBox="0 0 522 76" fill="none" xmlns="http://www.w3.org/2000/svg">
<path d="M52.0761 12.9848L46.4285 15.9656C38.9882 11.0787 32.8328 8.08264 26.1742 8.83204C18.4088 9.70601 14.879 11.3461 10.6434 16.7115C1.78281 27.9355 10.6434 38.1731 14.879 43.5385C16.6796 45.8193 19.8206 44.7308 21.0143 50.5424H36.4262L37.2511 47.5616C37.838 45.3269 45.4872 42.1962 47.8403 39.2155L53.0001 41.1538L43.6047 50.5424C41.5129 55.1961 43.4858 56.2571 29.3668 56.0577C17.3657 56.2571 16.5103 56.8648 15.585 51.2885C-1.35772 41.2731 -1.2243 26.25 1.12885 20.2885C2.77606 15.5193 7.60123 5.83093 21.7203 3.44632C35.8393 1.06174 47.8404 8.81171 52.0761 12.9848Z" fill="#FFC700"/>
<path d="M20.5663 59.0386C16.0482 60.9463 18.6838 63.8078 20.5663 65.0001H37.509C42.027 62.1386 39.3915 59.8334 37.509 59.0386H20.5663Z" fill="#FFC700"/>
<path d="M74.2956 61.448C71.1809 61.448 68.4076 60.7867 65.9756 59.464C63.5436 58.0987 61.6236 56.2 60.2156 53.768C58.8502 51.2933 58.1676 48.392 58.1676 45.064C58.1676 41.6933 58.8716 38.7707 60.2796 36.296C61.7302 33.8213 63.6929 31.9227 66.1676 30.6C68.6422 29.2347 71.4156 28.552 74.4876 28.552C77.5596 28.552 80.3329 29.2347 82.8076 30.6C85.2822 31.9227 87.2449 33.8213 88.6956 36.296C90.1462 38.728 90.8716 41.608 90.8716 44.936C90.8716 48.3067 90.1249 51.2293 88.6316 53.704C87.1809 56.1787 85.1969 58.0987 82.6796 59.464C80.2049 60.7867 77.4102 61.448 74.2956 61.448ZM74.2316 54.088C75.5542 54.088 76.8129 53.768 78.0076 53.128C79.2022 52.4453 80.1836 51.4427 80.9516 50.12C81.7196 48.7547 82.1036 47.0267 82.1036 44.936C82.1036 42.9307 81.7409 41.2667 81.0156 39.944C80.2902 38.5787 79.3302 37.576 78.1356 36.936C76.9836 36.2533 75.7249 35.912 74.3596 35.912C73.0369 35.912 71.7996 36.2533 70.6476 36.936C69.5382 37.576 68.6422 38.5787 67.9596 39.944C67.3196 41.2667 66.9996 42.9733 66.9996 45.064C66.9996 47.0693 67.3196 48.7547 67.9596 50.12C68.5996 51.4427 69.4742 52.4453 70.5836 53.128C71.6929 53.768 72.9089 54.088 74.2316 54.088ZM120.375 33.8L119.351 33.928V14.92H127.543V61H120.119L119.607 57.032C118.583 58.2267 117.217 59.272 115.511 60.168C113.847 61.0213 111.905 61.448 109.687 61.448C106.913 61.448 104.46 60.7653 102.327 59.4C100.193 58.0347 98.5292 56.136 97.3346 53.704C96.1399 51.2293 95.5426 48.328 95.5426 45C95.5426 41.672 96.1399 38.7707 97.3346 36.296C98.5292 33.8213 100.193 31.9227 102.327 30.6C104.46 29.2347 106.913 28.552 109.687 28.552C112.204 28.552 114.359 29.064 116.151 30.088C117.985 31.112 119.393 32.3493 120.375 33.8ZM104.375 45C104.375 47.688 105.057 49.864 106.423 51.528C107.788 53.1493 109.58 53.96 111.799 53.96C113.164 53.96 114.401 53.6187 115.511 52.936C116.663 52.2107 117.58 51.1867 118.263 49.864C118.988 48.5413 119.351 46.92 119.351 45C119.351 43.08 118.988 41.4587 118.263 40.136C117.58 38.8133 116.663 37.8107 115.511 37.128C114.401 36.4027 113.164 36.04 111.799 36.04C109.58 36.04 107.788 36.872 106.423 38.536C105.057 40.1573 104.375 42.312 104.375 45ZM154.209 61L153.569 57.096C152.502 58.4187 151.286 59.464 149.921 60.232C148.598 61 146.806 61.384 144.545 61.384C142.411 61.384 140.534 61.0213 138.913 60.296C137.334 59.528 136.097 58.4827 135.201 57.16C134.305 55.7947 133.857 54.1947 133.857 52.36C133.857 49.672 134.817 47.4533 136.737 45.704C138.699 43.912 141.643 42.7813 145.569 42.312L153.569 41.416V39.176C153.569 38.28 153.163 37.448 152.353 36.68C151.542 35.912 150.262 35.528 148.513 35.528C146.977 35.528 145.633 35.912 144.481 36.68C143.371 37.4053 142.625 38.5147 142.241 40.008L135.201 37.448C136.054 34.5893 137.675 32.392 140.065 30.856C142.454 29.32 145.398 28.552 148.897 28.552C153.163 28.552 156.363 29.6187 158.497 31.752C160.673 33.8427 161.761 36.616 161.761 40.072V61H154.209ZM153.569 47.112L146.657 48.008C145.249 48.1787 144.182 48.6053 143.457 49.288C142.731 49.928 142.369 50.7173 142.369 51.656C142.369 52.552 142.731 53.32 143.457 53.96C144.182 54.5573 145.206 54.856 146.529 54.856C148.022 54.856 149.281 54.5787 150.305 54.024C151.371 53.4693 152.182 52.6587 152.737 51.592C153.291 50.5253 153.569 49.2027 153.569 47.624V47.112ZM169.268 29H176.692L177.268 32.264C178.292 31.112 179.529 30.216 180.98 29.576C182.473 28.8933 184.073 28.552 185.78 28.552C188.297 28.552 190.43 29.0853 192.18 30.152C193.972 31.2187 195.337 32.776 196.276 34.824C197.257 36.8293 197.748 39.3253 197.748 42.312V61H189.492V43.4C189.492 40.9253 189.001 39.0693 188.02 37.832C187.038 36.5947 185.566 35.976 183.604 35.976C181.598 35.976 180.062 36.616 178.996 37.896C177.972 39.1333 177.46 40.9893 177.46 43.464V61H169.268V29ZM228.375 33.8L227.351 33.928V14.92H235.543V61H228.119L227.607 57.032C226.583 58.2267 225.217 59.272 223.511 60.168C221.847 61.0213 219.905 61.448 217.687 61.448C214.913 61.448 212.46 60.7653 210.327 59.4C208.193 58.0347 206.529 56.136 205.335 53.704C204.14 51.2293 203.543 48.328 203.543 45C203.543 41.672 204.14 38.7707 205.335 36.296C206.529 33.8213 208.193 31.9227 210.327 30.6C212.46 29.2347 214.913 28.552 217.687 28.552C220.204 28.552 222.359 29.064 224.151 30.088C225.985 31.112 227.393 32.3493 228.375 33.8ZM212.375 45C212.375 47.688 213.057 49.864 214.423 51.528C215.788 53.1493 217.58 53.96 219.799 53.96C221.164 53.96 222.401 53.6187 223.511 52.936C224.663 52.2107 225.58 51.1867 226.263 49.864C226.988 48.5413 227.351 46.92 227.351 45C227.351 43.08 226.988 41.4587 226.263 40.136C225.58 38.8133 224.663 37.8107 223.511 37.128C222.401 36.4027 221.164 36.04 219.799 36.04C217.58 36.04 215.788 36.872 214.423 38.536C213.057 40.1573 212.375 42.312 212.375 45ZM257.921 61.448C254.806 61.448 252.033 60.7867 249.601 59.464C247.169 58.0987 245.249 56.2 243.841 53.768C242.475 51.2933 241.793 48.392 241.793 45.064C241.793 41.6933 242.497 38.7707 243.905 36.296C245.355 33.8213 247.318 31.9227 249.793 30.6C252.267 29.2347 255.041 28.552 258.113 28.552C261.185 28.552 263.958 29.2347 266.433 30.6C268.907 31.9227 270.87 33.8213 272.321 36.296C273.771 38.728 274.497 41.608 274.497 44.936C274.497 48.3067 273.75 51.2293 272.257 53.704C270.806 56.1787 268.822 58.0987 266.305 59.464C263.83 60.7867 261.035 61.448 257.921 61.448ZM257.857 54.088C259.179 54.088 260.438 53.768 261.633 53.128C262.827 52.4453 263.809 51.4427 264.577 50.12C265.345 48.7547 265.729 47.0267 265.729 44.936C265.729 42.9307 265.366 41.2667 264.641 39.944C263.915 38.5787 262.955 37.576 261.761 36.936C260.609 36.2533 259.35 35.912 257.985 35.912C256.662 35.912 255.425 36.2533 254.273 36.936C253.163 37.576 252.267 38.5787 251.585 39.944C250.945 41.2667 250.625 42.9733 250.625 45.064C250.625 47.0693 250.945 48.7547 251.585 50.12C252.225 51.4427 253.099 52.4453 254.209 53.128C255.318 53.768 256.534 54.088 257.857 54.088Z" fill="#FAFAFA"/>
<path d="M285.152 16.2H293.792V61H285.152V16.2ZM325.375 33.8L324.351 33.928V14.92H332.543V61H325.119L324.607 57.032C323.583 58.2267 322.217 59.272 320.511 60.168C318.847 61.0213 316.905 61.448 314.687 61.448C311.913 61.448 309.46 60.7653 307.327 59.4C305.193 58.0347 303.529 56.136 302.335 53.704C301.14 51.2293 300.543 48.328 300.543 45C300.543 41.672 301.14 38.7707 302.335 36.296C303.529 33.8213 305.193 31.9227 307.327 30.6C309.46 29.2347 311.913 28.552 314.687 28.552C317.204 28.552 319.359 29.064 321.151 30.088C322.985 31.112 324.393 32.3493 325.375 33.8ZM309.375 45C309.375 47.688 310.057 49.864 311.423 51.528C312.788 53.1493 314.58 53.96 316.799 53.96C318.164 53.96 319.401 53.6187 320.511 52.936C321.663 52.2107 322.58 51.1867 323.263 49.864C323.988 48.5413 324.351 46.92 324.351 45C324.351 43.08 323.988 41.4587 323.263 40.136C322.58 38.8133 321.663 37.8107 320.511 37.128C319.401 36.4027 318.164 36.04 316.799 36.04C314.58 36.04 312.788 36.872 311.423 38.536C310.057 40.1573 309.375 42.312 309.375 45ZM354.921 61.448C351.721 61.448 348.905 60.744 346.473 59.336C344.041 57.928 342.142 55.9653 340.777 53.448C339.454 50.9307 338.793 48.0293 338.793 44.744C338.793 41.5867 339.454 38.792 340.777 36.36C342.099 33.928 343.934 32.0293 346.281 30.664C348.67 29.256 351.379 28.552 354.409 28.552C357.481 28.552 360.19 29.2133 362.537 30.536C364.883 31.8587 366.697 33.7147 367.977 36.104C369.299 38.4507 369.961 41.2027 369.961 44.36C369.961 44.8293 369.918 45.3627 369.833 45.96C369.79 46.5147 369.726 47.112 369.641 47.752H347.625C347.795 49.1173 348.222 50.2907 348.905 51.272C349.63 52.2107 350.505 52.9573 351.529 53.512C352.595 54.024 353.79 54.28 355.113 54.28C356.691 54.28 358.099 53.96 359.337 53.32C360.617 52.6373 361.534 51.7627 362.089 50.696L369.385 52.872C368.105 55.6027 366.185 57.7147 363.625 59.208C361.107 60.7013 358.206 61.448 354.921 61.448ZM361.001 41.8C360.958 40.6053 360.638 39.5387 360.041 38.6C359.443 37.6187 358.654 36.872 357.673 36.36C356.691 35.8053 355.603 35.528 354.409 35.528C353.342 35.528 352.339 35.8053 351.401 36.36C350.462 36.9147 349.651 37.6613 348.969 38.6C348.329 39.496 347.902 40.5627 347.689 41.8H361.001ZM377.293 29H385.485V61H377.293V29ZM381.453 24.904C379.917 24.904 378.658 24.4347 377.677 23.496C376.696 22.5147 376.205 21.32 376.205 19.912C376.205 18.504 376.696 17.3307 377.677 16.392C378.658 15.4107 379.917 14.92 381.453 14.92C382.904 14.92 384.12 15.4107 385.101 16.392C386.125 17.3307 386.637 18.504 386.637 19.912C386.637 21.32 386.125 22.5147 385.101 23.496C384.12 24.4347 382.904 24.904 381.453 24.904ZM413.271 61L412.631 57.096C411.564 58.4187 410.348 59.464 408.983 60.232C407.66 61 405.868 61.384 403.607 61.384C401.474 61.384 399.596 61.0213 397.975 60.296C396.396 59.528 395.159 58.4827 394.263 57.16C393.367 55.7947 392.919 54.1947 392.919 52.36C392.919 49.672 393.879 47.4533 395.799 45.704C397.762 43.912 400.706 42.7813 404.631 42.312L412.631 41.416V39.176C412.631 38.28 412.226 37.448 411.415 36.68C410.604 35.912 409.324 35.528 407.575 35.528C406.039 35.528 404.695 35.912 403.543 36.68C402.434 37.4053 401.687 38.5147 401.303 40.008L394.263 37.448C395.116 34.5893 396.738 32.392 399.127 30.856C401.516 29.32 404.46 28.552 407.959 28.552C412.226 28.552 415.426 29.6187 417.559 31.752C419.735 33.8427 420.823 36.616 420.823 40.072V61H413.271ZM412.631 47.112L405.719 48.008C404.311 48.1787 403.244 48.6053 402.519 49.288C401.794 49.928 401.431 50.7173 401.431 51.656C401.431 52.552 401.794 53.32 402.519 53.96C403.244 54.5573 404.268 54.856 405.591 54.856C407.084 54.856 408.343 54.5787 409.367 54.024C410.434 53.4693 411.244 52.6587 411.799 51.592C412.354 50.5253 412.631 49.2027 412.631 47.624V47.112ZM434.09 50.568C434.346 51.6347 434.773 52.4453 435.37 53C436.01 53.5547 436.714 53.96 437.482 54.216C438.293 54.4293 439.103 54.536 439.914 54.536C441.407 54.536 442.581 54.2587 443.434 53.704C444.287 53.1067 444.714 52.36 444.714 51.464C444.714 50.696 444.415 50.0987 443.818 49.672C443.221 49.2027 442.453 48.8613 441.514 48.648C440.575 48.392 439.615 48.136 438.634 47.88C437.482 47.5813 436.245 47.2613 434.922 46.92C433.642 46.536 432.426 46.0027 431.274 45.32C430.122 44.6373 429.162 43.7627 428.394 42.696C427.626 41.5867 427.242 40.2 427.242 38.536C427.242 36.5733 427.775 34.8453 428.842 33.352C429.951 31.8587 431.466 30.6853 433.386 29.832C435.349 28.9787 437.61 28.552 440.17 28.552C443.199 28.552 445.759 29.192 447.85 30.472C449.941 31.752 451.455 33.5867 452.394 35.976L445.162 38.024C444.949 37.4267 444.586 36.936 444.074 36.552C443.562 36.168 442.943 35.8907 442.218 35.72C441.535 35.5493 440.831 35.464 440.106 35.464C438.869 35.464 437.845 35.72 437.034 36.232C436.223 36.7013 435.818 37.3627 435.818 38.216C435.818 38.728 435.967 39.1547 436.266 39.496C436.565 39.7947 436.97 40.0507 437.482 40.264C438.037 40.4773 438.655 40.6693 439.338 40.84C440.063 41.0107 440.853 41.2027 441.706 41.416C443.029 41.7573 444.351 42.1627 445.674 42.632C447.039 43.0587 448.277 43.6133 449.386 44.296C450.538 44.9787 451.455 45.896 452.138 47.048C452.821 48.2 453.205 49.6507 453.29 51.4C453.29 53.2773 452.757 54.984 451.69 56.52C450.623 58.0133 449.087 59.208 447.082 60.104C445.077 61 442.645 61.448 439.786 61.448C436.458 61.448 433.621 60.744 431.274 59.336C428.97 57.928 427.455 55.7307 426.73 52.744L434.09 50.568Z" fill="#FFC700"/>
</svg>
