<svg width="381" height="76" viewBox="0 0 381 76" fill="none" xmlns="http://www.w3.org/2000/svg">
<path d="M44.4178 20.3406L39.6007 23.1291C33.2546 18.5575 28.0044 15.7547 22.325 16.4558C15.7016 17.2734 12.6909 18.8077 9.07813 23.8269C1.52058 34.3267 9.07813 43.9038 12.6909 48.9231C14.2267 51.0568 16.9058 50.0385 17.9239 55.4751H31.0693L31.773 52.6867C32.2736 50.5962 38.7978 47.6674 40.8049 44.879L45.2059 46.6923L37.1922 55.4751C35.408 59.8286 37.0908 60.8211 25.0481 60.6346C14.8119 60.8211 14.0823 61.3897 13.293 56.1731C-1.1581 46.8038 -1.04431 32.75 0.962794 27.1731C2.36777 22.7116 6.48335 13.6483 18.5261 11.4175C30.5687 9.18679 40.805 16.4368 44.4178 20.3406Z" fill="#01132D"/>
<path d="M17.5419 63.4231C13.6882 65.2077 15.9362 67.8846 17.5419 69H31.993C35.8466 66.3231 33.5986 64.1667 31.993 63.4231H17.5419Z" fill="#01132D"/>
<path d="M72.024 61.448C68.8667 61.448 65.9013 60.8933 63.128 59.784C60.3547 58.6747 57.9227 57.1173 55.832 55.112C53.784 53.064 52.1627 50.6533 50.968 47.88C49.7733 45.064 49.176 41.9707 49.176 38.6C49.176 35.2293 49.7733 32.1573 50.968 29.384C52.1627 26.6107 53.784 24.2 55.832 22.152C57.9227 20.104 60.3547 18.5253 63.128 17.416C65.9013 16.3067 68.8667 15.752 72.024 15.752C75.224 15.752 78.1893 16.3067 80.92 17.416C83.6933 18.5253 86.1253 20.104 88.216 22.152C90.3067 24.2 91.928 26.6107 93.08 29.384C94.2747 32.1573 94.872 35.2293 94.872 38.6C94.872 41.9707 94.2747 45.064 93.08 47.88C91.928 50.6533 90.3067 53.064 88.216 55.112C86.1253 57.1173 83.6933 58.6747 80.92 59.784C78.1893 60.8933 75.224 61.448 72.024 61.448ZM72.088 54.088C74.776 54.088 77.1653 53.448 79.256 52.168C81.3893 50.8453 83.0533 49.032 84.248 46.728C85.4853 44.424 86.104 41.7147 86.104 38.6C86.104 35.4853 85.4853 32.776 84.248 30.472C83.0533 28.168 81.3893 26.376 79.256 25.096C77.1653 23.7733 74.776 23.112 72.088 23.112C69.3147 23.112 66.8613 23.7733 64.728 25.096C62.6373 26.376 60.9947 28.168 59.8 30.472C58.6053 32.776 58.008 35.4853 58.008 38.6C58.008 41.672 58.6053 44.3813 59.8 46.728C60.9947 49.0747 62.6373 50.888 64.728 52.168C66.8613 53.448 69.3147 54.088 72.088 54.088ZM118.056 16.2C122.835 16.2 126.973 17.1387 130.472 19.016C134.013 20.8507 136.765 23.4533 138.728 26.824C140.691 30.1947 141.672 34.1627 141.672 38.728C141.672 43.2507 140.691 47.176 138.728 50.504C136.765 53.832 134.013 56.4133 130.472 58.248C126.973 60.0827 122.835 61 118.056 61H101.352V16.2H118.056ZM117.8 53.768C122.621 53.768 126.333 52.4453 128.936 49.8C131.539 47.112 132.84 43.4213 132.84 38.728C132.84 33.992 131.539 30.2587 128.936 27.528C126.333 24.7973 122.621 23.432 117.8 23.432H109.992V53.768H117.8ZM148.931 29H157.123V61H148.931V29ZM153.091 24.904C151.555 24.904 150.296 24.4347 149.315 23.496C148.334 22.5147 147.843 21.32 147.843 19.912C147.843 18.504 148.334 17.3307 149.315 16.392C150.296 15.4107 151.555 14.92 153.091 14.92C154.542 14.92 155.758 15.4107 156.739 16.392C157.763 17.3307 158.275 18.504 158.275 19.912C158.275 21.32 157.763 22.5147 156.739 23.496C155.758 24.4347 154.542 24.904 153.091 24.904ZM189.325 33.8L188.301 33.928V14.92H196.493V61H189.069L188.557 57.032C187.533 58.2267 186.168 59.272 184.461 60.168C182.797 61.0213 180.856 61.448 178.637 61.448C175.864 61.448 173.41 60.7653 171.277 59.4C169.144 58.0347 167.48 56.136 166.285 53.704C165.09 51.2293 164.493 48.328 164.493 45C164.493 41.672 165.09 38.7707 166.285 36.296C167.48 33.8213 169.144 31.9227 171.277 30.6C173.41 29.2347 175.864 28.552 178.637 28.552C181.154 28.552 183.309 29.064 185.101 30.088C186.936 31.112 188.344 32.3493 189.325 33.8ZM173.325 45C173.325 47.688 174.008 49.864 175.373 51.528C176.738 53.1493 178.53 53.96 180.749 53.96C182.114 53.96 183.352 53.6187 184.461 52.936C185.613 52.2107 186.53 51.1867 187.213 49.864C187.938 48.5413 188.301 46.92 188.301 45C188.301 43.08 187.938 41.4587 187.213 40.136C186.53 38.8133 185.613 37.8107 184.461 37.128C183.352 36.4027 182.114 36.04 180.749 36.04C178.53 36.04 176.738 36.872 175.373 38.536C174.008 40.1573 173.325 42.312 173.325 45ZM218.871 61.448C215.671 61.448 212.855 60.744 210.423 59.336C207.991 57.928 206.092 55.9653 204.727 53.448C203.404 50.9307 202.743 48.0293 202.743 44.744C202.743 41.5867 203.404 38.792 204.727 36.36C206.05 33.928 207.884 32.0293 210.231 30.664C212.62 29.256 215.33 28.552 218.359 28.552C221.431 28.552 224.14 29.2133 226.487 30.536C228.834 31.8587 230.647 33.7147 231.927 36.104C233.25 38.4507 233.911 41.2027 233.911 44.36C233.911 44.8293 233.868 45.3627 233.783 45.96C233.74 46.5147 233.676 47.112 233.591 47.752H211.575C211.746 49.1173 212.172 50.2907 212.855 51.272C213.58 52.2107 214.455 52.9573 215.479 53.512C216.546 54.024 217.74 54.28 219.063 54.28C220.642 54.28 222.05 53.96 223.287 53.32C224.567 52.6373 225.484 51.7627 226.039 50.696L233.335 52.872C232.055 55.6027 230.135 57.7147 227.575 59.208C225.058 60.7013 222.156 61.448 218.871 61.448ZM224.951 41.8C224.908 40.6053 224.588 39.5387 223.991 38.6C223.394 37.6187 222.604 36.872 221.623 36.36C220.642 35.8053 219.554 35.528 218.359 35.528C217.292 35.528 216.29 35.8053 215.351 36.36C214.412 36.9147 213.602 37.6613 212.919 38.6C212.279 39.496 211.852 40.5627 211.639 41.8H224.951ZM241.244 29H249.436V61H241.244V29ZM245.404 24.904C243.868 24.904 242.609 24.4347 241.628 23.496C240.646 22.5147 240.156 21.32 240.156 19.912C240.156 18.504 240.646 17.3307 241.628 16.392C242.609 15.4107 243.868 14.92 245.404 14.92C246.854 14.92 248.07 15.4107 249.052 16.392C250.076 17.3307 250.588 18.504 250.588 19.912C250.588 21.32 250.076 22.5147 249.052 23.496C248.07 24.4347 246.854 24.904 245.404 24.904ZM277.222 61L276.582 57.096C275.515 58.4187 274.299 59.464 272.934 60.232C271.611 61 269.819 61.384 267.558 61.384C265.424 61.384 263.547 61.0213 261.926 60.296C260.347 59.528 259.11 58.4827 258.214 57.16C257.318 55.7947 256.87 54.1947 256.87 52.36C256.87 49.672 257.83 47.4533 259.75 45.704C261.712 43.912 264.656 42.7813 268.582 42.312L276.582 41.416V39.176C276.582 38.28 276.176 37.448 275.366 36.68C274.555 35.912 273.275 35.528 271.526 35.528C269.99 35.528 268.646 35.912 267.494 36.68C266.384 37.4053 265.638 38.5147 265.254 40.008L258.214 37.448C259.067 34.5893 260.688 32.392 263.078 30.856C265.467 29.32 268.411 28.552 271.91 28.552C276.176 28.552 279.376 29.6187 281.51 31.752C283.686 33.8427 284.774 36.616 284.774 40.072V61H277.222ZM276.582 47.112L269.67 48.008C268.262 48.1787 267.195 48.6053 266.47 49.288C265.744 49.928 265.382 50.7173 265.382 51.656C265.382 52.552 265.744 53.32 266.47 53.96C267.195 54.5573 268.219 54.856 269.542 54.856C271.035 54.856 272.294 54.5787 273.318 54.024C274.384 53.4693 275.195 52.6587 275.75 51.592C276.304 50.5253 276.582 49.2027 276.582 47.624V47.112ZM298.041 50.568C298.297 51.6347 298.723 52.4453 299.321 53C299.961 53.5547 300.665 53.96 301.433 54.216C302.243 54.4293 303.054 54.536 303.865 54.536C305.358 54.536 306.531 54.2587 307.385 53.704C308.238 53.1067 308.665 52.36 308.665 51.464C308.665 50.696 308.366 50.0987 307.769 49.672C307.171 49.2027 306.403 48.8613 305.465 48.648C304.526 48.392 303.566 48.136 302.585 47.88C301.433 47.5813 300.195 47.2613 298.873 46.92C297.593 46.536 296.377 46.0027 295.225 45.32C294.073 44.6373 293.113 43.7627 292.345 42.696C291.577 41.5867 291.193 40.2 291.193 38.536C291.193 36.5733 291.726 34.8453 292.793 33.352C293.902 31.8587 295.417 30.6853 297.337 29.832C299.299 28.9787 301.561 28.552 304.121 28.552C307.15 28.552 309.71 29.192 311.801 30.472C313.891 31.752 315.406 33.5867 316.345 35.976L309.113 38.024C308.899 37.4267 308.537 36.936 308.025 36.552C307.513 36.168 306.894 35.8907 306.169 35.72C305.486 35.5493 304.782 35.464 304.057 35.464C302.819 35.464 301.795 35.72 300.985 36.232C300.174 36.7013 299.769 37.3627 299.769 38.216C299.769 38.728 299.918 39.1547 300.217 39.496C300.515 39.7947 300.921 40.0507 301.433 40.264C301.987 40.4773 302.606 40.6693 303.289 40.84C304.014 41.0107 304.803 41.2027 305.657 41.416C306.979 41.7573 308.302 42.1627 309.625 42.632C310.99 43.0587 312.227 43.6133 313.337 44.296C314.489 44.9787 315.406 45.896 316.089 47.048C316.771 48.2 317.155 49.6507 317.241 51.4C317.241 53.2773 316.707 54.984 315.641 56.52C314.574 58.0133 313.038 59.208 311.033 60.104C309.027 61 306.595 61.448 303.737 61.448C300.409 61.448 297.571 60.744 295.225 59.336C292.921 57.928 291.406 55.7307 290.681 52.744L298.041 50.568Z" fill="#01132D"/>
</svg>
