<svg width="167" height="213" viewBox="0 0 167 213" fill="none" xmlns="http://www.w3.org/2000/svg">
<g filter="url(#filter0_d_20_19)">
<path d="M85.6837 94.5016L85.692 94.2633C85.769 92.0555 87.6211 90.328 89.8289 90.405L124.808 91.6236C127.015 91.7005 128.743 93.5527 128.666 95.7605L127.302 134.906C127.228 137.02 125.455 138.675 123.341 138.601C121.226 138.527 119.572 136.754 119.646 134.64L120.723 103.727C120.8 101.519 119.072 99.6673 116.865 99.5904L89.542 98.6385C87.3342 98.5616 85.6068 96.7094 85.6837 94.5016Z" fill="#FFC700" stroke="#FFC700"/>
<path d="M36.8334 117.5C36.8334 118.973 38.0273 120.167 39.5 120.167C40.9728 120.167 42.1667 118.973 42.1667 117.5C42.1667 116.027 40.9728 114.833 39.5 114.833C38.0273 114.833 36.8334 116.027 36.8334 117.5ZM78.8002 117.87L79.1883 117.554L79.1883 117.554L78.8002 117.87ZM136.333 192C136.333 193.473 137.527 194.667 139 194.667C140.473 194.667 141.667 193.473 141.667 192C141.667 190.527 140.473 189.333 139 189.333C137.527 189.333 136.333 190.527 136.333 192ZM39.5 117.5V118H78.0239V117.5V117H39.5V117.5ZM78.8002 117.87L78.412 118.185L138.612 192.315L139 192L139.388 191.685L79.1883 117.554L78.8002 117.87ZM78.0239 117.5V118C78.1745 118 78.3171 118.068 78.412 118.185L78.8002 117.87L79.1883 117.554C78.9035 117.204 78.4757 117 78.0239 117V117.5Z" fill="#FFC700"/>
<path d="M74 107V105.252C74 103.043 72.2092 101.252 70 101.252H48.3058C46.0966 101.252 44.3058 99.4611 44.3058 97.252V65.6528C44.3058 63.6354 42.6703 62 40.6529 62C38.6355 62 37 63.6354 37 65.6529V107C37 109.209 38.7909 111 41 111H70C72.2092 111 74 109.209 74 107Z" fill="#FFC700" stroke="#FFC700"/>
<path d="M13.8823 18.3076C12.3402 18.5621 11.4944 18.0734 10.1815 17.8831C8.81802 17.3791 5.95124 15.8742 6.18149 12.8831C6.41576 9.83979 7.41576 8.94454 7.91576 8.33979C8.60476 7.50646 10.2693 6.03979 13.4158 6.83979C17.3488 7.83979 17.3488 12.1501 17.3488 14.995L86.804 102.113L152.667 190.307C153.667 189.874 156.98 189.801 158.916 191.34C161.289 193.226 160.916 198.84 160.916 198.84C160.916 198.84 160.916 202.34 156.916 203.34C152.916 204.34 148.624 199.724 150.049 193.639L13.8823 18.3076Z" fill="#FFC700"/>
<path d="M17.3488 14.995L86.804 102.113L152.667 190.307M17.3488 14.995L13.8823 18.3076M17.3488 14.995C17.3488 12.1501 17.3488 7.83979 13.4158 6.83979C10.2693 6.03979 8.60476 7.50646 7.91576 8.33979C7.41576 8.94454 6.41576 9.83979 6.18149 12.8831C5.95124 15.8742 8.81802 17.3791 10.1815 17.8831C11.4944 18.0734 12.3402 18.5621 13.8823 18.3076M13.8823 18.3076L150.049 193.639M150.049 193.639L152.667 190.307M150.049 193.639C148.624 199.724 152.916 204.34 156.916 203.34C160.916 202.34 160.916 198.84 160.916 198.84C160.916 198.84 161.289 193.226 158.916 191.34C156.98 189.801 153.667 189.874 152.667 190.307" stroke="#FFC700"/>
<path d="M98.5 104H114C114.552 104 115 104.448 115 105V123.5" stroke="#FFC700" stroke-linecap="round"/>
<path d="M48.3333 123C48.3333 124.473 49.5272 125.667 51 125.667C52.4728 125.667 53.6667 124.473 53.6667 123C53.6667 121.527 52.4728 120.333 51 120.333C49.5272 120.333 48.3333 121.527 48.3333 123ZM77.3002 123.374L77.6901 123.061V123.061L77.3002 123.374ZM125.333 186.5C125.333 187.973 126.527 189.167 128 189.167C129.473 189.167 130.667 187.973 130.667 186.5C130.667 185.027 129.473 183.833 128 183.833C126.527 183.833 125.333 185.027 125.333 186.5ZM51 123V123.5H76.5206V123V122.5H51V123ZM77.3002 123.374L76.9104 123.687L127.61 186.813L128 186.5L128.39 186.187L77.6901 123.061L77.3002 123.374ZM76.5206 123V123.5C76.6721 123.5 76.8155 123.569 76.9104 123.687L77.3002 123.374L77.6901 123.061C77.4054 122.706 76.9752 122.5 76.5206 122.5V123Z" fill="#FFC700"/>
<path d="M8.83333 23.5C8.83333 24.9728 10.0272 26.1667 11.5 26.1667C12.9728 26.1667 14.1667 24.9728 14.1667 23.5C14.1667 22.0273 12.9728 20.8333 11.5 20.8333C10.0272 20.8333 8.83333 22.0273 8.83333 23.5ZM32.826 54.745L33.2389 54.4631V54.4631L32.826 54.745ZM30.3333 106C30.3333 107.473 31.5272 108.667 33 108.667C34.4728 108.667 35.6667 107.473 35.6667 106C35.6667 104.527 34.4728 103.333 33 103.333C31.5272 103.333 30.3333 104.527 30.3333 106ZM11.5 23.5L11.087 23.7819L32.413 55.0269L32.826 54.745L33.2389 54.4631L11.913 23.2181L11.5 23.5ZM33 55.3088H32.5V106H33H33.5V55.3088H33ZM32.826 54.745L32.413 55.0269C32.4697 55.11 32.5 55.2082 32.5 55.3088H33H33.5C33.5 55.007 33.409 54.7123 33.2389 54.4631L32.826 54.745Z" fill="#FFC700"/>
<path d="M123.833 82.5C123.833 83.9728 125.027 85.1667 126.5 85.1667C127.973 85.1667 129.167 83.9728 129.167 82.5C129.167 81.0273 127.973 79.8334 126.5 79.8334C125.027 79.8334 123.833 81.0273 123.833 82.5ZM82.1999 82.1321L82.5874 81.816H82.5874L82.1999 82.1321ZM22.3333 12C22.3333 13.4728 23.5272 14.6667 25 14.6667C26.4728 14.6667 27.6667 13.4728 27.6667 12C27.6667 10.5273 26.4728 9.33335 25 9.33335C23.5272 9.33335 22.3333 10.5273 22.3333 12ZM126.5 82.5V82H82.9748V82.5V83H126.5V82.5ZM82.1999 82.1321L82.5874 81.816L25.3875 11.684L25 12L24.6125 12.316L81.8124 82.4481L82.1999 82.1321ZM82.9748 82.5V82C82.8246 82 82.6823 81.9325 82.5874 81.816L82.1999 82.1321L81.8124 82.4481C82.0973 82.7974 82.5241 83 82.9748 83V82.5Z" fill="#FFC700"/>
<path d="M153.333 175C153.333 176.473 154.527 177.667 156 177.667C157.473 177.667 158.667 176.473 158.667 175C158.667 173.527 157.473 172.333 156 172.333C154.527 172.333 153.333 173.527 153.333 175ZM135.209 148.156L134.814 148.463H134.814L135.209 148.156ZM132.333 91C132.333 92.4728 133.527 93.6667 135 93.6667C136.473 93.6667 137.667 92.4728 137.667 91C137.667 89.5272 136.473 88.3333 135 88.3333C133.527 88.3333 132.333 89.5272 132.333 91ZM156 175L156.395 174.694L135.605 147.85L135.209 148.156L134.814 148.463L155.605 175.306L156 175ZM135 147.544H135.5V91H135H134.5V147.544H135ZM135.209 148.156L135.605 147.85C135.537 147.763 135.5 147.655 135.5 147.544H135H134.5C134.5 147.877 134.61 148.2 134.814 148.463L135.209 148.156Z" fill="#FFC700"/>
<path d="M84.6998 74.1263L84.31 74.4395L84.31 74.4395L84.6998 74.1263ZM35.3333 16C35.3333 17.4728 36.5272 18.6667 38 18.6667C39.4728 18.6667 40.6667 17.4728 40.6667 16C40.6667 14.5273 39.4728 13.3333 38 13.3333C36.5272 13.3333 35.3333 14.5273 35.3333 16ZM113.333 74.5C113.333 75.9728 114.527 77.1667 116 77.1667C117.473 77.1667 118.667 75.9728 118.667 74.5C118.667 73.0273 117.473 71.8333 116 71.8333C114.527 71.8333 113.333 73.0273 113.333 74.5ZM84.6998 74.1263L85.0896 73.8132L38.3898 15.6869L38 16L37.6102 16.3132L84.31 74.4395L84.6998 74.1263ZM85.4794 74.5V75H116V74.5V74H85.4794V74.5ZM84.6998 74.1263L84.31 74.4395C84.5947 74.7939 85.0248 75 85.4794 75V74.5V74C85.3278 74 85.1845 73.9313 85.0896 73.8132L84.6998 74.1263Z" fill="#FFC700"/>
<path d="M9.83333 36C9.83333 37.4727 11.0272 38.6666 12.5 38.6666C13.9728 38.6666 15.1667 37.4727 15.1667 36C15.1667 34.5272 13.9728 33.3333 12.5 33.3333C11.0272 33.3333 9.83333 34.5272 9.83333 36ZM26.8229 56.7435L27.2343 56.4594L27.2343 56.4594L26.8229 56.7435ZM24.3333 95C24.3333 96.4727 25.5272 97.6666 27 97.6666C28.4728 97.6666 29.6667 96.4727 29.6667 95C29.6667 93.5272 28.4728 92.3333 27 92.3333C25.5272 92.3333 24.3333 93.5272 24.3333 95ZM12.5 36L12.0886 36.284L26.4114 57.0276L26.8229 56.7435L27.2343 56.4594L12.9114 35.7159L12.5 36ZM27 57.3117H26.5V95H27H27.5V57.3117H27ZM26.8229 56.7435L26.4114 57.0276C26.4691 57.1111 26.5 57.2102 26.5 57.3117H27H27.5C27.5 57.0072 27.4073 56.7099 27.2343 56.4594L26.8229 56.7435Z" fill="#FFC700"/>
<path d="M138.333 100C138.333 101.473 139.527 102.667 141 102.667C142.473 102.667 143.667 101.473 143.667 100C143.667 98.5272 142.473 97.3333 141 97.3333C139.527 97.3333 138.333 98.5272 138.333 100ZM141.203 146.268L141.601 145.966L141.601 145.966L141.203 146.268ZM152.333 164.5C152.333 165.973 153.527 167.167 155 167.167C156.473 167.167 157.667 165.973 157.667 164.5C157.667 163.027 156.473 161.833 155 161.833C153.527 161.833 152.333 163.027 152.333 164.5ZM141 100H140.5V145.664H141H141.5V100H141ZM141.203 146.268L140.804 146.569L154.601 164.802L155 164.5L155.399 164.198L141.601 145.966L141.203 146.268ZM141 145.664H140.5C140.5 145.991 140.607 146.309 140.804 146.569L141.203 146.268L141.601 145.966C141.536 145.879 141.5 145.773 141.5 145.664H141Z" fill="#FFC700"/>
<path d="M49 70V91C49 91.5523 49.4477 92 50 92H66" stroke="#FFC700" stroke-linecap="round"/>
<path d="M5 44V200C5 202.209 6.79086 204 9 204H29C31.2091 204 33 202.209 33 200V125" stroke="#FFC700" stroke-linecap="round"/>
<path d="M162 158V5C162 2.79086 160.209 1 158 1H139C136.791 1 135 2.79086 135 5V81.5" stroke="#FFC700" stroke-linecap="round"/>
</g>
<defs>
<filter id="filter0_d_20_19" x="0.5" y="0.5" width="166" height="212" filterUnits="userSpaceOnUse" color-interpolation-filters="sRGB">
<feFlood flood-opacity="0" result="BackgroundImageFix"/>
<feColorMatrix in="SourceAlpha" type="matrix" values="0 0 0 0 0 0 0 0 0 0 0 0 0 0 0 0 0 0 127 0" result="hardAlpha"/>
<feOffset dy="4"/>
<feGaussianBlur stdDeviation="2"/>
<feComposite in2="hardAlpha" operator="out"/>
<feColorMatrix type="matrix" values="0 0 0 0 0 0 0 0 0 0 0 0 0 0 0 0 0 0 0.25 0"/>
<feBlend mode="normal" in2="BackgroundImageFix" result="effect1_dropShadow_20_19"/>
<feBlend mode="normal" in="SourceGraphic" in2="effect1_dropShadow_20_19" result="shape"/>
</filter>
</defs>
</svg>
