<svg width="641" height="76" viewBox="0 0 641 76" fill="none" xmlns="http://www.w3.org/2000/svg">
<path d="M52.5754 12.9848L46.9278 15.9656C39.4875 11.0787 33.3321 8.08264 26.6735 8.83204C18.9081 9.70601 15.3783 11.3461 11.1427 16.7115C2.28214 27.9355 11.1427 38.1731 15.3783 43.5385C17.179 45.8193 20.32 44.7308 21.5137 50.5424H36.9255L37.7505 47.5616C38.3374 45.3269 45.9865 42.1962 48.3397 39.2155L53.4994 41.1538L44.104 50.5424C42.0123 55.1961 43.9851 56.2571 29.8662 56.0577C17.8651 56.2571 17.0096 56.8648 16.0843 51.2885C-0.858388 41.2731 -0.724975 26.25 1.62818 20.2885C3.27539 15.5193 8.10056 5.83093 22.2197 3.44632C36.3386 1.06174 48.3397 8.81171 52.5754 12.9848Z" fill="#01132D" stroke="black"/>
<path d="M21.0657 59.0386C16.5476 60.9463 19.1832 63.8078 21.0657 65.0001H38.0084C42.5264 62.1386 39.8909 59.8334 38.0084 59.0386H21.0657Z" fill="#01132D" stroke="black"/>
<path d="M74.795 61.448C71.6803 61.448 68.907 60.7867 66.475 59.464C64.043 58.0987 62.123 56.2 60.715 53.768C59.3496 51.2933 58.667 48.392 58.667 45.064C58.667 41.6933 59.371 38.7707 60.779 36.296C62.2296 33.8213 64.1923 31.9227 66.667 30.6C69.1416 29.2347 71.915 28.552 74.987 28.552C78.059 28.552 80.8323 29.2347 83.307 30.6C85.7816 31.9227 87.7443 33.8213 89.195 36.296C90.6456 38.728 91.371 41.608 91.371 44.936C91.371 48.3067 90.6243 51.2293 89.131 53.704C87.6803 56.1787 85.6963 58.0987 83.179 59.464C80.7043 60.7867 77.9096 61.448 74.795 61.448ZM74.731 54.088C76.0536 54.088 77.3123 53.768 78.507 53.128C79.7016 52.4453 80.683 51.4427 81.451 50.12C82.219 48.7547 82.603 47.0267 82.603 44.936C82.603 42.9307 82.2403 41.2667 81.515 39.944C80.7896 38.5787 79.8296 37.576 78.635 36.936C77.483 36.2533 76.2243 35.912 74.859 35.912C73.5363 35.912 72.299 36.2533 71.147 36.936C70.0376 37.576 69.1416 38.5787 68.459 39.944C67.819 41.2667 67.499 42.9733 67.499 45.064C67.499 47.0693 67.819 48.7547 68.459 50.12C69.099 51.4427 69.9736 52.4453 71.083 53.128C72.1923 53.768 73.4083 54.088 74.731 54.088ZM120.874 33.8L119.85 33.928V14.92H128.042V61H120.618L120.106 57.032C119.082 58.2267 117.717 59.272 116.01 60.168C114.346 61.0213 112.405 61.448 110.186 61.448C107.413 61.448 104.959 60.7653 102.826 59.4C100.693 58.0347 99.0286 56.136 97.834 53.704C96.6393 51.2293 96.042 48.328 96.042 45C96.042 41.672 96.6393 38.7707 97.834 36.296C99.0286 33.8213 100.693 31.9227 102.826 30.6C104.959 29.2347 107.413 28.552 110.186 28.552C112.703 28.552 114.858 29.064 116.65 30.088C118.485 31.112 119.893 32.3493 120.874 33.8ZM104.874 45C104.874 47.688 105.557 49.864 106.922 51.528C108.287 53.1493 110.079 53.96 112.298 53.96C113.663 53.96 114.901 53.6187 116.01 52.936C117.162 52.2107 118.079 51.1867 118.762 49.864C119.487 48.5413 119.85 46.92 119.85 45C119.85 43.08 119.487 41.4587 118.762 40.136C118.079 38.8133 117.162 37.8107 116.01 37.128C114.901 36.4027 113.663 36.04 112.298 36.04C110.079 36.04 108.287 36.872 106.922 38.536C105.557 40.1573 104.874 42.312 104.874 45ZM154.708 61L154.068 57.096C153.001 58.4187 151.785 59.464 150.42 60.232C149.097 61 147.305 61.384 145.044 61.384C142.911 61.384 141.033 61.0213 139.412 60.296C137.833 59.528 136.596 58.4827 135.7 57.16C134.804 55.7947 134.356 54.1947 134.356 52.36C134.356 49.672 135.316 47.4533 137.236 45.704C139.199 43.912 142.143 42.7813 146.068 42.312L154.068 41.416V39.176C154.068 38.28 153.663 37.448 152.852 36.68C152.041 35.912 150.761 35.528 149.012 35.528C147.476 35.528 146.132 35.912 144.98 36.68C143.871 37.4053 143.124 38.5147 142.74 40.008L135.7 37.448C136.553 34.5893 138.175 32.392 140.564 30.856C142.953 29.32 145.897 28.552 149.396 28.552C153.663 28.552 156.863 29.6187 158.996 31.752C161.172 33.8427 162.26 36.616 162.26 40.072V61H154.708ZM154.068 47.112L147.156 48.008C145.748 48.1787 144.681 48.6053 143.956 49.288C143.231 49.928 142.868 50.7173 142.868 51.656C142.868 52.552 143.231 53.32 143.956 53.96C144.681 54.5573 145.705 54.856 147.028 54.856C148.521 54.856 149.78 54.5787 150.804 54.024C151.871 53.4693 152.681 52.6587 153.236 51.592C153.791 50.5253 154.068 49.2027 154.068 47.624V47.112ZM169.767 29H177.191L177.767 32.264C178.791 31.112 180.028 30.216 181.479 29.576C182.972 28.8933 184.572 28.552 186.279 28.552C188.796 28.552 190.93 29.0853 192.679 30.152C194.471 31.2187 195.836 32.776 196.775 34.824C197.756 36.8293 198.247 39.3253 198.247 42.312V61H189.991V43.4C189.991 40.9253 189.5 39.0693 188.519 37.832C187.538 36.5947 186.066 35.976 184.103 35.976C182.098 35.976 180.562 36.616 179.495 37.896C178.471 39.1333 177.959 40.9893 177.959 43.464V61H169.767V29ZM228.874 33.8L227.85 33.928V14.92H236.042V61H228.618L228.106 57.032C227.082 58.2267 225.717 59.272 224.01 60.168C222.346 61.0213 220.405 61.448 218.186 61.448C215.413 61.448 212.959 60.7653 210.826 59.4C208.693 58.0347 207.029 56.136 205.834 53.704C204.639 51.2293 204.042 48.328 204.042 45C204.042 41.672 204.639 38.7707 205.834 36.296C207.029 33.8213 208.693 31.9227 210.826 30.6C212.959 29.2347 215.413 28.552 218.186 28.552C220.703 28.552 222.858 29.064 224.65 30.088C226.485 31.112 227.893 32.3493 228.874 33.8ZM212.874 45C212.874 47.688 213.557 49.864 214.922 51.528C216.287 53.1493 218.079 53.96 220.298 53.96C221.663 53.96 222.901 53.6187 224.01 52.936C225.162 52.2107 226.079 51.1867 226.762 49.864C227.487 48.5413 227.85 46.92 227.85 45C227.85 43.08 227.487 41.4587 226.762 40.136C226.079 38.8133 225.162 37.8107 224.01 37.128C222.901 36.4027 221.663 36.04 220.298 36.04C218.079 36.04 216.287 36.872 214.922 38.536C213.557 40.1573 212.874 42.312 212.874 45ZM258.42 61.448C255.305 61.448 252.532 60.7867 250.1 59.464C247.668 58.0987 245.748 56.2 244.34 53.768C242.975 51.2933 242.292 48.392 242.292 45.064C242.292 41.6933 242.996 38.7707 244.404 36.296C245.855 33.8213 247.817 31.9227 250.292 30.6C252.767 29.2347 255.54 28.552 258.612 28.552C261.684 28.552 264.457 29.2347 266.932 30.6C269.407 31.9227 271.369 33.8213 272.82 36.296C274.271 38.728 274.996 41.608 274.996 44.936C274.996 48.3067 274.249 51.2293 272.756 53.704C271.305 56.1787 269.321 58.0987 266.804 59.464C264.329 60.7867 261.535 61.448 258.42 61.448ZM258.356 54.088C259.679 54.088 260.937 53.768 262.132 53.128C263.327 52.4453 264.308 51.4427 265.076 50.12C265.844 48.7547 266.228 47.0267 266.228 44.936C266.228 42.9307 265.865 41.2667 265.14 39.944C264.415 38.5787 263.455 37.576 262.26 36.936C261.108 36.2533 259.849 35.912 258.484 35.912C257.161 35.912 255.924 36.2533 254.772 36.936C253.663 37.576 252.767 38.5787 252.084 39.944C251.444 41.2667 251.124 42.9733 251.124 45.064C251.124 47.0693 251.444 48.7547 252.084 50.12C252.724 51.4427 253.599 52.4453 254.708 53.128C255.817 53.768 257.033 54.088 258.356 54.088Z" fill="#01132D"/>
<path d="M281.651 16.2H290.291V61H281.651V16.2ZM321.874 33.8L320.85 33.928V14.92H329.042V61H321.618L321.106 57.032C320.082 58.2267 318.717 59.272 317.01 60.168C315.346 61.0213 313.405 61.448 311.186 61.448C308.413 61.448 305.959 60.7653 303.826 59.4C301.693 58.0347 300.029 56.136 298.834 53.704C297.639 51.2293 297.042 48.328 297.042 45C297.042 41.672 297.639 38.7707 298.834 36.296C300.029 33.8213 301.693 31.9227 303.826 30.6C305.959 29.2347 308.413 28.552 311.186 28.552C313.703 28.552 315.858 29.064 317.65 30.088C319.485 31.112 320.893 32.3493 321.874 33.8ZM305.874 45C305.874 47.688 306.557 49.864 307.922 51.528C309.287 53.1493 311.079 53.96 313.298 53.96C314.663 53.96 315.901 53.6187 317.01 52.936C318.162 52.2107 319.079 51.1867 319.762 49.864C320.487 48.5413 320.85 46.92 320.85 45C320.85 43.08 320.487 41.4587 319.762 40.136C319.079 38.8133 318.162 37.8107 317.01 37.128C315.901 36.4027 314.663 36.04 313.298 36.04C311.079 36.04 309.287 36.872 307.922 38.536C306.557 40.1573 305.874 42.312 305.874 45ZM351.42 61.448C348.22 61.448 345.404 60.744 342.972 59.336C340.54 57.928 338.641 55.9653 337.276 53.448C335.953 50.9307 335.292 48.0293 335.292 44.744C335.292 41.5867 335.953 38.792 337.276 36.36C338.599 33.928 340.433 32.0293 342.78 30.664C345.169 29.256 347.879 28.552 350.908 28.552C353.98 28.552 356.689 29.2133 359.036 30.536C361.383 31.8587 363.196 33.7147 364.476 36.104C365.799 38.4507 366.46 41.2027 366.46 44.36C366.46 44.8293 366.417 45.3627 366.332 45.96C366.289 46.5147 366.225 47.112 366.14 47.752H344.124C344.295 49.1173 344.721 50.2907 345.404 51.272C346.129 52.2107 347.004 52.9573 348.028 53.512C349.095 54.024 350.289 54.28 351.612 54.28C353.191 54.28 354.599 53.96 355.836 53.32C357.116 52.6373 358.033 51.7627 358.588 50.696L365.884 52.872C364.604 55.6027 362.684 57.7147 360.124 59.208C357.607 60.7013 354.705 61.448 351.42 61.448ZM357.5 41.8C357.457 40.6053 357.137 39.5387 356.54 38.6C355.943 37.6187 355.153 36.872 354.172 36.36C353.191 35.8053 352.103 35.528 350.908 35.528C349.841 35.528 348.839 35.8053 347.9 36.36C346.961 36.9147 346.151 37.6613 345.468 38.6C344.828 39.496 344.401 40.5627 344.188 41.8H357.5ZM373.792 29H381.984V61H373.792V29ZM377.952 24.904C376.416 24.904 375.158 24.4347 374.176 23.496C373.195 22.5147 372.704 21.32 372.704 19.912C372.704 18.504 373.195 17.3307 374.176 16.392C375.158 15.4107 376.416 14.92 377.952 14.92C379.403 14.92 380.619 15.4107 381.6 16.392C382.624 17.3307 383.136 18.504 383.136 19.912C383.136 21.32 382.624 22.5147 381.6 23.496C380.619 24.4347 379.403 24.904 377.952 24.904ZM409.77 61L409.13 57.096C408.064 58.4187 406.848 59.464 405.482 60.232C404.16 61 402.368 61.384 400.106 61.384C397.973 61.384 396.096 61.0213 394.474 60.296C392.896 59.528 391.658 58.4827 390.762 57.16C389.866 55.7947 389.418 54.1947 389.418 52.36C389.418 49.672 390.378 47.4533 392.298 45.704C394.261 43.912 397.205 42.7813 401.13 42.312L409.13 41.416V39.176C409.13 38.28 408.725 37.448 407.914 36.68C407.104 35.912 405.824 35.528 404.074 35.528C402.538 35.528 401.194 35.912 400.042 36.68C398.933 37.4053 398.186 38.5147 397.802 40.008L390.762 37.448C391.616 34.5893 393.237 32.392 395.626 30.856C398.016 29.32 400.96 28.552 404.458 28.552C408.725 28.552 411.925 29.6187 414.058 31.752C416.234 33.8427 417.322 36.616 417.322 40.072V61H409.77ZM409.13 47.112L402.218 48.008C400.81 48.1787 399.744 48.6053 399.018 49.288C398.293 49.928 397.93 50.7173 397.93 51.656C397.93 52.552 398.293 53.32 399.018 53.96C399.744 54.5573 400.768 54.856 402.09 54.856C403.584 54.856 404.842 54.5787 405.866 54.024C406.933 53.4693 407.744 52.6587 408.298 51.592C408.853 50.5253 409.13 49.2027 409.13 47.624V47.112ZM430.589 50.568C430.845 51.6347 431.272 52.4453 431.869 53C432.509 53.5547 433.213 53.96 433.981 54.216C434.792 54.4293 435.603 54.536 436.413 54.536C437.907 54.536 439.08 54.2587 439.933 53.704C440.787 53.1067 441.213 52.36 441.213 51.464C441.213 50.696 440.915 50.0987 440.317 49.672C439.72 49.2027 438.952 48.8613 438.013 48.648C437.075 48.392 436.115 48.136 435.133 47.88C433.981 47.5813 432.744 47.2613 431.421 46.92C430.141 46.536 428.925 46.0027 427.773 45.32C426.621 44.6373 425.661 43.7627 424.893 42.696C424.125 41.5867 423.741 40.2 423.741 38.536C423.741 36.5733 424.275 34.8453 425.341 33.352C426.451 31.8587 427.965 30.6853 429.885 29.832C431.848 28.9787 434.109 28.552 436.669 28.552C439.699 28.552 442.259 29.192 444.349 30.472C446.44 31.752 447.955 33.5867 448.893 35.976L441.661 38.024C441.448 37.4267 441.085 36.936 440.573 36.552C440.061 36.168 439.443 35.8907 438.717 35.72C438.035 35.5493 437.331 35.464 436.605 35.464C435.368 35.464 434.344 35.72 433.533 36.232C432.723 36.7013 432.317 37.3627 432.317 38.216C432.317 38.728 432.467 39.1547 432.765 39.496C433.064 39.7947 433.469 40.0507 433.981 40.264C434.536 40.4773 435.155 40.6693 435.837 40.84C436.563 41.0107 437.352 41.2027 438.205 41.416C439.528 41.7573 440.851 42.1627 442.173 42.632C443.539 43.0587 444.776 43.6133 445.885 44.296C447.037 44.9787 447.955 45.896 448.637 47.048C449.32 48.2 449.704 49.6507 449.789 51.4C449.789 53.2773 449.256 54.984 448.189 56.52C447.123 58.0133 445.587 59.208 443.581 60.104C441.576 61 439.144 61.448 436.285 61.448C432.957 61.448 430.12 60.744 427.773 59.336C425.469 57.928 423.955 55.7307 423.229 52.744L430.589 50.568Z" fill="#01132D"/>
</svg>
